<svg id="Layer_1" data-name="Layer 1" xmlns="http://www.w3.org/2000/svg" xmlns:xlink="http://www.w3.org/1999/xlink" viewBox="0 0 591.09 104.12"><defs><style>.cls-1,.cls-18,.cls-2,.cls-20,.cls-3,.cls-4,.cls-5,.cls-6{fill:none;}.cls-2{clip-path:url(#clip-path);}.cls-3{clip-path:url(#clip-path-2);}.cls-4{clip-path:url(#clip-path-3);}.cls-5{clip-path:url(#clip-path-4);}.cls-6{clip-path:url(#clip-path-5);}.cls-7{fill:#fff;}.cls-19,.cls-8{fill:#231f20;}.cls-13,.cls-9{fill:#eeb211;}.cls-18,.cls-19,.cls-9{fill-rule:evenodd;}.cls-10{fill:#f7d38b;}.cls-11{fill:#fbeacc;}.cls-12{clip-path:url(#clip-path-6);}.cls-14{clip-path:url(#clip-path-7);}.cls-15{fill:#f4c663;}.cls-16{fill:#58595b;}.cls-17{clip-path:url(#clip-path-13);}.cls-18,.cls-20{stroke:#231f20;stroke-miterlimit:10;}.cls-18{stroke-width:0.78px;}.cls-20{stroke-width:1.45px;}.cls-21{fill:#939598;}.cls-22{clip-path:url(#clip-path-14);}.cls-23{fill:#6d6e71;}.cls-24{clip-path:url(#clip-path-15);}.cls-25{fill:#bcbec0;}.cls-26{clip-path:url(#clip-path-16);}.cls-27,.cls-30{fill:#ef3e33;stroke:#ef3e33;stroke-miterlimit:3.86;}.cls-27{stroke-width:0.24px;}.cls-28{clip-path:url(#clip-path-18);}.cls-29{clip-path:url(#clip-path-19);}.cls-30{stroke-width:0.3px;}</style><clipPath id="clip-path"><path class="cls-1" d="M306.91,70.19l.15-.67a6.43,6.43,0,0,1,.5-1.35c.33-.62.78-1.15,1.35-1.17,1.15,0,2.32,1.53,2.41,4.06a7.2,7.2,0,0,1-.77,3.5c-.09.18-.18.34-.26.48l-3.38-4.85Z"/></clipPath><clipPath id="clip-path-2"><path class="cls-1" d="M298.85,70.37A21.4,21.4,0,0,1,292,68.28a11,11,0,0,1-4.16-3.44,6.4,6.4,0,0,1-.63-1.16,2.67,2.67,0,0,1-.12-.37,2.13,2.13,0,0,1,0-.4,2.3,2.3,0,0,1,.32-1c.43-.68,1.53-1.62,4.51-1.73,4.67-.16,8.06,7.59,9.14,10.4-.56,0-1.32-.09-2.2-.21Z"/></clipPath><clipPath id="clip-path-3"><path class="cls-1" d="M276.56,61.92c8,3.54,10.92,14.24,6.61,23.9S268.93,100.43,261,96.89,250.06,82.64,254.36,73s14.24-14.62,22.2-11.07Z"/></clipPath><clipPath id="clip-path-4"><path class="cls-1" d="M268.68,100a9.1,9.1,0,0,1-3.6,6.43c-4.51,3.28-11.39,1.5-15.37-4-3.44-4.75-3.58-10.7-.62-14.34a13.44,13.44,0,0,0,3.1,9.61c4.25,5.25,11.21,6.67,15.55,3.17a8.91,8.91,0,0,0,.94-.9Z"/></clipPath><clipPath id="clip-path-5"><path class="cls-1" d="M262.74,119.94a27.23,27.23,0,0,1-8.33-7.38c-.38-.5-.76-1-1.13-1.61l.53.37a10.5,10.5,0,0,0,8.82,1.42,33.58,33.58,0,0,0,1.42,6.66l.47,1.49-1.31-.7-.47-.25Z"/></clipPath><clipPath id="clip-path-6" transform="translate(-47.48 -20.12)"><path class="cls-1" d="M271.59,87.44l2.13-.21s1.43-2.61,2.9-5.94c.66-1.51,1.39-3.24,2.06-5.1l-.68.12c-.51,1.22-1,2.33-1.48,3.32-1.28,2.69-2.31,4.46-2.63,5l-4.1,2.44-1.34-2.46.9-1.71,2.29-.68s.83-2.6,1.65-6c-.9-.34-2.07-.81-3.44-1.4a83.9,83.9,0,0,1-12.64-6.88c-15-10-13.1-18.13-11.81-18.66,1-.44,2.07-.25,4.08,1.49.61.52,1.27,1.16,2,1.94-8.9-11.13-5.79-17.67-4.46-18s2.32.18,4.15,2.5c.9,1.16,1.94,2.71,3.21,4.74s2.77,4.49,4.58,7.43a83.26,83.26,0,0,0,9.68,12.39c3.05,3.29,5.78,5.77,5.78,5.77l.51-.13a57.93,57.93,0,0,0,.55-6.32c.09-3.11.15-5.7.23-7.85a51.1,51.1,0,0,1,.37-5.14c.38-2.63,1-3.46,2.11-3.81s6.53,3.31,4.59,16c.25-.94.48-1.74.72-2.42.78-2.27,1.51-2.88,2.51-3,1.24-.16,6.41,5.31-.81,19.87a73.72,73.72,0,0,1-6.76,11c-1.59,2.16-2.8,3.55-3.18,4l-4,1.45-.76-2.4,1.1-1.36Z"/></clipPath><clipPath id="clip-path-7" transform="translate(-47.48 -20.12)"><path class="cls-1" d="M263.49,119.66l-.45-.25a26.67,26.67,0,0,1-8.14-7.21c-4.34-5.72-8.08-15.8-3.56-25.94,2.92-6.55,6.55-9.42,9.29-10.69a11.17,11.17,0,0,1,3.42-1l.45,0,2.22,3.4,4,14.21c-.29.68-.82,1.93-1.45,3.3a30.81,30.81,0,0,1-2.64,4.83c-.48.65-1,1.28-1.51,1.94a19.38,19.38,0,0,0-1.6,2.38,13,13,0,0,0-1.61,7,31.66,31.66,0,0,0,1.53,8l0,.08Z"/></clipPath><clipPath id="clip-path-13" transform="translate(-47.48 -20.12)"><path class="cls-1" d="M278.08,67.12a7.24,7.24,0,0,1,2.25,1.1,7.09,7.09,0,0,1,.56.47c.11.1.48.53.48.53l.33.1a35.44,35.44,0,0,1,3.89,1.5,16.88,16.88,0,0,1,2.48,1.37,4.58,4.58,0,0,1,.66.57.92.92,0,0,1,.11.14,27.63,27.63,0,0,1,.57,2.84,12.37,12.37,0,0,1-.07,3.92c-.51,2.66-2.23,5.82-7.48,8.22-9.26,4.25-14.13-.79-15.67-3.62-1.66-3-4.26-8.94,3.12-14.62,4-3.08,6.94-3,8.77-2.52Z"/></clipPath><clipPath id="clip-path-14" transform="translate(-47.48 -20.12)"><path class="cls-1" d="M266.78,48.34a2.74,2.74,0,0,1,.51-.89l.08-.07.15,0,.51.13c.41.11,1,.26,1.62.47a31.69,31.69,0,0,1,6.6,3,32.44,32.44,0,0,1,6,4.69c.65.66,1.14,1.21,1.47,1.6l-.53.41a25.31,25.31,0,0,0-2-1.91,23.6,23.6,0,0,0-6.69-4.07,31,31,0,0,0-8-2,5.06,5.06,0,0,1,.27-1.44Z"/></clipPath><clipPath id="clip-path-15" transform="translate(-47.48 -20.12)"><path class="cls-1" d="M284.51,62l-1.1-2.79,0-.07a5.8,5.8,0,0,1,.83-.93,3.54,3.54,0,0,1,1-.62l.13-.06,2.14,1.54-.7,1.29L284.51,62Z"/></clipPath><clipPath id="clip-path-16" transform="translate(-47.48 -20.12)"><path class="cls-1" d="M307.59,71.2l.15-.67a6,6,0,0,1,.5-1.34c.33-.62.78-1.16,1.35-1.18,1.14,0,2.32,1.54,2.41,4.06a7.25,7.25,0,0,1-.77,3.51c-.09.17-.18.33-.27.47l-3.37-4.85Z"/></clipPath><clipPath id="clip-path-18" transform="translate(-47.48 -20.12)"><path class="cls-1" d="M287,48.72a2.36,2.36,0,0,1,.67-.63l.09,0,.12.08.4.25c.32.19.76.47,1.27.82a28.92,28.92,0,0,1,8.83,10,19.11,19.11,0,0,1,.84,1.76l-.56.21A22.56,22.56,0,0,0,297.44,59a20.94,20.94,0,0,0-4.68-5.26,28,28,0,0,0-6.36-3.82,4.9,4.9,0,0,1,.61-1.17Z"/></clipPath><clipPath id="clip-path-19" transform="translate(-47.48 -20.12)"><path class="cls-1" d="M297.83,70.71A21.4,21.4,0,0,1,291,68.62a11.29,11.29,0,0,1-4.16-3.44,6.4,6.4,0,0,1-.63-1.16,1.85,1.85,0,0,1-.11-.37,1.65,1.65,0,0,1,0-.4,2.2,2.2,0,0,1,.33-1c.42-.69,1.52-1.63,4.51-1.73,4.66-.16,8.05,7.58,9.14,10.4-.56,0-1.32-.09-2.21-.21Z"/></clipPath></defs><path class="cls-7" d="M288.93,20.12a50.9,50.9,0,0,0-35.75,14.79l-.38-.49c-1.45-1.85-3.3-3.74-6-3.74a6.6,6.6,0,0,0-1.23.13,4.77,4.77,0,0,0-3.3,2.79c-1.42,3-1,7.4,1,12.09-2.16.94-3.64,3.85-2.26,8.33a50.56,50.56,0,0,0,4.52,43.11c0,.15.06.3.1.44a31.47,31.47,0,0,0,6.17,16c6.2,8.18,13.42,9.95,13.72,10l2.91.68-1.19-2.74a40.52,40.52,0,0,1-1.9-5.76,50.7,50.7,0,1,0,23.51-95.62ZM272.2,54q0,1.5-.09,3.24L272,60.09q0,.33,0,.69c-1.69-1.74-3.84-4.05-6-6.68.35-.47.71-.93,1.09-1.39A30.27,30.27,0,0,1,272.2,54Zm28.87-8.79-9.42,2.3-.16-.08-.4.11a20.21,20.21,0,0,0-2.89-1.79l-.51-.24-.53.15A4.21,4.21,0,0,0,285,47.25l-.22.32a14.68,14.68,0,0,0-2.08-4.43,28.33,28.33,0,0,1,18.39,2.06ZM280.92,97.82A3.23,3.23,0,0,0,283,95.15a7.1,7.1,0,0,0-.7-4.3l.76-.34a20.94,20.94,0,0,0,4.47-2.72,25.43,25.43,0,0,0,3.58.13l.52,0c-.53,1.42-2.05,2-3.83,2.6a9.09,9.09,0,0,0-1.46.57c-2,1.1-2.8,3.89-2.33,5.84A3,3,0,0,0,285.49,99a29,29,0,0,1-4.71-1ZM299,97.35a16.16,16.16,0,0,0,1.84-10.81l2.64-.55c2-.43,3.94-.83,5.75-1.14l.86-.1.68-.07a7.34,7.34,0,0,0,2.14-.53c1.1-.51,2.85-1.88,2.14-5.37a14.29,14.29,0,0,0-1.39-3.7,10.18,10.18,0,0,0,.67-4c-.08-2.29-1-5-2.73-6.36a17.12,17.12,0,0,0-.14-2.15l4.26-1.11a28.13,28.13,0,0,1,1.58,9.33A28.42,28.42,0,0,1,299,97.35Z" transform="translate(-47.48 -20.12)"/><path class="cls-8" d="M287.9,77.05s9.22.32,11.31,8.2c2.21,8.36-2.62,14.1-3.82,14.14s-2.3,0-2.3,0-1.44,1.15-2.69.38a10.84,10.84,0,0,0-2.84-1.16A1,1,0,0,1,287,98s-1,.14-1.33-1.22a4.06,4.06,0,0,1,1.58-4.17c1.26-.68,5.36-1.1,6.15-4.52.65-2.76-.49-6.44-3.81-6.81-2.25-.25-1.65-4.19-1.65-4.19Z" transform="translate(-47.48 -20.12)"/><path class="cls-9" d="M292.6,98.4a.05.05,0,0,0-.05,0l-.12.07a2.24,2.24,0,0,1-.41.2.88.88,0,0,1-.81,0,10.64,10.64,0,0,0-2-.93c-.45-.16-.82-.26-1-.31l-.22-.8-.6,0h-.34a.68.68,0,0,1-.12-.31,3,3,0,0,1,1-2.91,2.74,2.74,0,0,1,.43-.17c.22-.09.48-.17.76-.26a16,16,0,0,0,2-.77,6,6,0,0,0,3.52-4.06c.67-2.88-.35-7.44-4.8-7.94,0,0-.07,0-.13-.16a2.78,2.78,0,0,1-.17-.47c-.09-.36-.15-.76-.19-.94a2.1,2.1,0,0,1,0-.51c2.31.36,7.51,1.79,9,7.25a14,14,0,0,1-.57,9.44,12.06,12.06,0,0,1-1.48,2.46,6.8,6.8,0,0,1-.54.62c-.07.07-.13.12-.16.16-1.19.06-2.64,0-2.64,0l-.33.26v0Z" transform="translate(-47.48 -20.12)"/><path class="cls-8" d="M291.9,98.72a3.84,3.84,0,0,0,1.55-1.43,5.38,5.38,0,0,0,.95-2,3,3,0,0,1-.25,2.91c-1,1.31-1.36,1.3-1.36,1.3l-.89-.82Z" transform="translate(-47.48 -20.12)"/><path class="cls-8" d="M288.35,98.7l-.63-.86-.35-.18a3.6,3.6,0,0,1,.25-2.32,1.77,1.77,0,0,1,2.49-.55,1.09,1.09,0,0,1,.15,1.71c-.11-.88-1.43-1.42-1.87-.42a5,5,0,0,0,0,2.62Z" transform="translate(-47.48 -20.12)"/><path class="cls-10" d="M268,80.88l2.12-.63,0-.06c.18-.58.54-1.82,1-3.5l0-.1-.1,0a84.42,84.42,0,0,1-15.35-8c-14.24-9.47-15.48-19.64-11.56-21.28a3.89,3.89,0,0,1,1.35-.31h.19l-.08-.17c-3.95-7.71-2.65-13.64.48-14.29,2.16-.45,3.79.63,5.71,3.07,1,1.22,2,2.84,3.31,4.87s2.77,4.49,4.59,7.44c4.34,7,10.86,13.68,13.56,16.3l.18.18,0-.26c.13-1.25.22-2.51.25-3.75.18-6.27.23-10.44.62-13.17s1.19-4.38,3.11-5c2.79-.92,6.46,3.16,6.88,10.87v.18l.17-.08a4,4,0,0,1,1.12-.33c3.9-.49,7.44,8.13.62,21.88A71.54,71.54,0,0,1,276,90.13l-.1.12-5.73,2-1.32-4.18-2.34-4.27,1.57-3Zm5,4.9.41-.78-1.49.88,1.08-.1Z" transform="translate(-47.48 -20.12)"/><path class="cls-11" d="M271.59,87.44l2.13-.21s1.43-2.61,2.9-5.94c.66-1.51,1.39-3.24,2.06-5.1l-.68.12c-.51,1.22-1,2.33-1.48,3.32-1.28,2.69-2.31,4.46-2.63,5l-4.1,2.44-1.34-2.46.9-1.71,2.29-.68s.83-2.6,1.65-6c-.9-.34-2.07-.81-3.44-1.4a83.9,83.9,0,0,1-12.64-6.88c-15-10-13.1-18.13-11.81-18.66,1-.44,2.07-.25,4.08,1.49.61.52,1.27,1.16,2,1.94-8.9-11.13-5.79-17.67-4.46-18s2.32.18,4.15,2.5c.9,1.16,1.94,2.71,3.21,4.74s2.77,4.49,4.58,7.43a83.26,83.26,0,0,0,9.68,12.39c3.05,3.29,5.78,5.77,5.78,5.77l.51-.13a57.93,57.93,0,0,0,.55-6.32c.09-3.11.15-5.7.23-7.85a51.1,51.1,0,0,1,.37-5.14c.38-2.63,1-3.46,2.11-3.81s6.53,3.31,4.59,16c.25-.94.48-1.74.72-2.42.78-2.27,1.51-2.88,2.51-3,1.24-.16,6.41,5.31-.81,19.87a73.72,73.72,0,0,1-6.76,11c-1.59,2.16-2.8,3.55-3.18,4l-4,1.45-.76-2.4,1.1-1.36Z" transform="translate(-47.48 -20.12)"/><g class="cls-12"><path class="cls-10" d="M275.5,41.87h15.44a2.44,2.44,0,0,1,2.44,2.44V67.88a2.44,2.44,0,0,1-2.44,2.44H275.5a2.44,2.44,0,0,1-2.44-2.44V44.31a2.44,2.44,0,0,1,2.44-2.44Z" transform="translate(-47.48 -20.12)"/></g><polygon class="cls-10" points="221.5 49.67 220 50.73 211.36 43.59 221.5 49.67 221.5 49.67"/><polygon class="cls-10" points="225.13 48.9 223.58 49.88 215.32 42.3 225.13 48.9 225.13 48.9"/><path class="cls-8" d="M247.33,95.88V94.27a25.12,25.12,0,0,1,2.18-9.12c6.14-13.79,15.65-12.75,15.65-12.75L268,76.79l4.26,15s-2.57,6.45-4.52,9.06-4.57,5-4.38,10.23,2.76,11.18,2.76,11.18-6.92-1.63-12.87-9.47a29.52,29.52,0,0,1-6-16.93Z" transform="translate(-47.48 -20.12)"/><path class="cls-13" d="M263.49,119.66l-.45-.25a26.67,26.67,0,0,1-8.14-7.21c-4.34-5.72-8.08-15.8-3.56-25.94,2.92-6.55,6.55-9.42,9.29-10.69a11.17,11.17,0,0,1,3.42-1l.45,0,2.22,3.4,4,14.21c-.29.68-.82,1.93-1.45,3.3a30.81,30.81,0,0,1-2.64,4.83c-.48.65-1,1.28-1.51,1.94a19.38,19.38,0,0,0-1.6,2.38,13,13,0,0,0-1.61,7,31.66,31.66,0,0,0,1.53,8l0,.08Z" transform="translate(-47.48 -20.12)"/><g class="cls-14"><path class="cls-15" d="M263.49,119.66a27.62,27.62,0,0,1-6.22-6c-4.34-5.71-8.08-15.79-3.56-25.93,2.92-6.55,6.55-9.42,9.29-10.69a11.21,11.21,0,0,1,3.43-1l.45,0,2.22,3.4,1.19,4.2-.51.22c-2.74,1.28-6.37,4.14-9.29,10.69-4.33,9.71-1.09,19.35,3,25.18Z" transform="translate(-47.48 -20.12)"/><path class="cls-8" d="M276.56,61.92c8,3.54,10.92,14.24,6.61,23.9S268.93,100.43,261,96.89,250.06,82.64,254.36,73s14.24-14.62,22.2-11.07Z" transform="translate(-47.48 -20.12)"/></g><g class="cls-14"><path class="cls-16" d="M263.49,119.66a27.62,27.62,0,0,1-6.22-6c-4.34-5.71-8.08-15.79-3.56-25.93,2.92-6.55,6.55-9.42,9.29-10.69a11.21,11.21,0,0,1,3.43-1l.45,0,2.22,3.4,1.19,4.2-.51.22c-2.74,1.28-6.37,4.14-9.29,10.69-4.33,9.71-1.09,19.35,3,25.18Z" transform="translate(-47.48 -20.12)"/></g><g class="cls-14"><path class="cls-8" d="M268.68,100a9.1,9.1,0,0,1-3.6,6.43c-4.51,3.28-11.39,1.5-15.37-4-3.44-4.75-3.58-10.7-.62-14.34a13.44,13.44,0,0,0,3.1,9.61c4.25,5.25,11.21,6.67,15.55,3.17a8.91,8.91,0,0,0,.94-.9Z" transform="translate(-47.48 -20.12)"/></g><g class="cls-14"><path class="cls-16" d="M263.49,119.66a27.62,27.62,0,0,1-6.22-6c-4.34-5.71-8.08-15.79-3.56-25.93,2.92-6.55,6.55-9.42,9.29-10.69a11.21,11.21,0,0,1,3.43-1l.45,0,2.22,3.4,1.19,4.2-.51.22c-2.74,1.28-6.37,4.14-9.29,10.69-4.33,9.71-1.09,19.35,3,25.18Z" transform="translate(-47.48 -20.12)"/></g><g class="cls-14"><path class="cls-8" d="M262.74,119.94a27.23,27.23,0,0,1-8.33-7.38c-.38-.5-.76-1-1.13-1.61l.53.37a10.5,10.5,0,0,0,8.82,1.42,33.58,33.58,0,0,0,1.42,6.66l.47,1.49-1.31-.7-.47-.25Z" transform="translate(-47.48 -20.12)"/></g><g class="cls-14"><path class="cls-16" d="M263.49,119.66a27.62,27.62,0,0,1-6.22-6c-4.34-5.71-8.08-15.79-3.56-25.93,2.92-6.55,6.55-9.42,9.29-10.69a11.21,11.21,0,0,1,3.43-1l.45,0,2.22,3.4,1.19,4.2-.51.22c-2.74,1.28-6.37,4.14-9.29,10.69-4.33,9.71-1.09,19.35,3,25.18Z" transform="translate(-47.48 -20.12)"/></g><path class="cls-8" d="M282.41,67.19s7.73,2.43,8.27,5,3.5,11.87-8.08,17.18c-10.44,4.78-16.3-1-18.19-4.46-1.79-3.26-5-10.49,3.63-17.11,8.87-6.83,14.37-.57,14.37-.57Z" transform="translate(-47.48 -20.12)"/><path class="cls-13" d="M278.08,67.12a7.24,7.24,0,0,1,2.25,1.1,7.09,7.09,0,0,1,.56.47c.11.1.48.53.48.53l.33.1a35.44,35.44,0,0,1,3.89,1.5,16.88,16.88,0,0,1,2.48,1.37,4.58,4.58,0,0,1,.66.57.92.92,0,0,1,.11.14,27.63,27.63,0,0,1,.57,2.84,12.37,12.37,0,0,1-.07,3.92c-.51,2.66-2.23,5.82-7.48,8.22-9.26,4.25-14.13-.79-15.67-3.62-1.66-3-4.26-8.94,3.12-14.62,4-3.08,6.94-3,8.77-2.52Z" transform="translate(-47.48 -20.12)"/><g class="cls-17"><path class="cls-15" d="M278.42,68.81a7.06,7.06,0,0,1,2.24,1.11,6.13,6.13,0,0,1,.57.46c.11.11.48.53.48.53L282,71a35.44,35.44,0,0,1,3.89,1.5,15.39,15.39,0,0,1,2.47,1.37,4.28,4.28,0,0,1,.67.57l.11.13c.08.38.22.92.35,1.58L289,75.9a35.44,35.44,0,0,0-3.89-1.5l-.33-.1s-.37-.43-.49-.53a4.65,4.65,0,0,0-.56-.47,7.28,7.28,0,0,0-2.24-1.1c-1.83-.52-4.91-2.3-8.78-.21-8.19,4.44-4.77,14.32-3.11,17.35A10.13,10.13,0,0,1,266.53,86c-1.66-3-4.26-8.94,3.11-14.63,4-3.07,6.95-3,8.78-2.52Z" transform="translate(-47.48 -20.12)"/></g><path class="cls-7" d="M289.13,22.18A48.82,48.82,0,1,0,337.94,71,48.82,48.82,0,0,0,289.13,22.18Zm0,79.08A30.27,30.27,0,1,1,319.39,71,30.26,30.26,0,0,1,289.13,101.26Z" transform="translate(-47.48 -20.12)"/><path class="cls-8" d="M263.8,105.09l-.79-.6,1.53-4.84a1.47,1.47,0,0,0,.07-.29,1.24,1.24,0,0,0,0-.31l1.23.92a1.65,1.65,0,0,0-.17.18,2.31,2.31,0,0,0-.14.23l-.29.91,1.31,1,.82-.51a1.11,1.11,0,0,0,.16-.16,2.09,2.09,0,0,0,.15-.24l1.28,1a2.47,2.47,0,0,0-.3,0,2.13,2.13,0,0,0-.32.13Zm2-2.33-.86-.65-.81,1.79Z" transform="translate(-47.48 -20.12)"/><path class="cls-8" d="M259.44,99.8c.56-.18.61-.6.38-1.37a1.71,1.71,0,0,1,.61-2.07,1.8,1.8,0,0,1,2,.43,1.76,1.76,0,0,1,.56.83l-.94.94a2.29,2.29,0,0,0,0-.79c-.08-.35-.42-.87-.9-.67s-.26.89-.16,1.28a1.89,1.89,0,0,1-.55,2.12,1.6,1.6,0,0,1-2.14-.27,3.4,3.4,0,0,1-.59-.94l.77-.73a2,2,0,0,0,.15.74C258.77,99.58,259.07,99.92,259.44,99.8Z" transform="translate(-47.48 -20.12)"/><path class="cls-8" d="M256.67,98.43l-2.35-3,1.08-.28s0,.27.07.43a1.81,1.81,0,0,0,.23.51l.16.21,3.1-2.4a2.55,2.55,0,0,0,.32-.39,1.91,1.91,0,0,0,.09-.2l.91,1.17-.29.08a2.86,2.86,0,0,0-.38.18l-3.1,2.4.17.21a1.74,1.74,0,0,0,.5.44,2.09,2.09,0,0,0,.66.27Z" transform="translate(-47.48 -20.12)"/><path class="cls-8" d="M253.14,93.53l-.52-.83,3.17-4a1.57,1.57,0,0,0,.17-.24,1.2,1.2,0,0,0,.1-.29l.81,1.3a1.44,1.44,0,0,0-.22.1,2.58,2.58,0,0,0-.22.17l-.6.73.87,1.41.94-.19a1.08,1.08,0,0,0,.22-.09l.22-.17.84,1.35a1.43,1.43,0,0,0-.29,0,1.89,1.89,0,0,0-.35,0Zm2.7-1.45-.57-.91-1.4,1.38Z" transform="translate(-47.48 -20.12)"/><path class="cls-8" d="M251.42,90.63l-1.64-3.49,1.13,0a3,3,0,0,0,0,.43,1.74,1.74,0,0,0,.11.56l.12.24,3.55-1.67a2.2,2.2,0,0,0,.39-.31.86.86,0,0,0,.14-.18l.64,1.35a1.82,1.82,0,0,0-.31,0,2.21,2.21,0,0,0-.41.09l-3.55,1.67.11.24a2,2,0,0,0,.4.54,2,2,0,0,0,.59.41Z" transform="translate(-47.48 -20.12)"/><path class="cls-8" d="M253.49,83.79l-.08-.25a4.58,4.58,0,0,0-.36-.78,3.51,3.51,0,0,0-.56-.71l1.17.11.9,2.61a2,2,0,0,0-.3,0,2,2,0,0,0-.42.07l-3.7,1.29a1.77,1.77,0,0,0-.35.21c-.1.08-.24.22-.24.22l-1-2.76,1.16.12a1.84,1.84,0,0,0-.07.51,1.61,1.61,0,0,0,.1.69l1.51-.53-.48-1.38,1.07.21a2.11,2.11,0,0,0,0,1Z" transform="translate(-47.48 -20.12)"/><path class="cls-8" d="M252.31,77.34a1.71,1.71,0,0,1-1.08,2.79l-2.8.53a2,2,0,0,0-.3.11,2.52,2.52,0,0,0-.34.22l-.27-1.47a1.7,1.7,0,0,0,.29.09,2.28,2.28,0,0,0,.42,0l2.8-.52a.92.92,0,0,0,.74-.58,1.1,1.1,0,0,0-.25-1l-.37-.46-3.27.62a2,2,0,0,0-.35.11,2.43,2.43,0,0,0-.29.22L247,76.54a2.11,2.11,0,0,0,.29.09,1.93,1.93,0,0,0,.43,0l3.85-.72a1.84,1.84,0,0,0,.45-.15,1.82,1.82,0,0,0,.19-.18l.23,1.26-.23,0a1.09,1.09,0,0,0-.19,0Z" transform="translate(-47.48 -20.12)"/><path class="cls-8" d="M248.78,74.11l2.6-.14a2.51,2.51,0,0,0,.44-.12l.24-.12.08,1.49a2.17,2.17,0,0,0-.26-.11,1.65,1.65,0,0,0-.44-.06l-3.92.21a3.63,3.63,0,0,0-.34.28,3.78,3.78,0,0,0-.32.33l-.08-1.51.31-.13a2.64,2.64,0,0,0,.36-.26l2.6-2.1-2.7.14a2,2,0,0,0-.47.12,1.39,1.39,0,0,0-.21.13l-.08-1.48.2.1a2.28,2.28,0,0,0,.5.07l3.92-.21a2,2,0,0,0,.51-.13l.16-.1.07,1.14a1.39,1.39,0,0,0-.23.1,3,3,0,0,0-.35.26Z" transform="translate(-47.48 -20.12)"/><path class="cls-8" d="M251.34,68.83a3,3,0,0,0,.41-.06,1.81,1.81,0,0,0,.28-.12L252,70.14a2.25,2.25,0,0,0-.28-.14,2.38,2.38,0,0,0-.4-.1l-3.92-.17a2.52,2.52,0,0,0-.37.06,2,2,0,0,0-.32.12l.06-1.49a3.29,3.29,0,0,0,.32.14,2,2,0,0,0,.38.1Z" transform="translate(-47.48 -20.12)"/><path class="cls-8" d="M247.77,63.85a1.25,1.25,0,0,0-.33-.05.89.89,0,0,0-.18,0l.24-1.64s.07.11.12.17a3.1,3.1,0,0,0,.32.28l4.45,2.67-.1.74-5,1.16a1.57,1.57,0,0,0-.32.13,1.18,1.18,0,0,0-.23.18l.23-1.64a.64.64,0,0,0,.16.07,1.09,1.09,0,0,0,.33,0l3.22-.62Z" transform="translate(-47.48 -20.12)"/><path class="cls-8" d="M252.47,61.53l.07-.25a3.36,3.36,0,0,0,.14-.84,3.46,3.46,0,0,0-.06-.91l.9.76L252.8,63a1.7,1.7,0,0,0-.22-.2,1.77,1.77,0,0,0-.38-.18l-3.79-1a1.91,1.91,0,0,0-.41,0,2,2,0,0,0-.31,0l.76-2.81.89.75a1.8,1.8,0,0,0-.35.38,1.55,1.55,0,0,0-.3.62l1.54.42.38-1.42.77.78a1.82,1.82,0,0,0-.31.31,2.27,2.27,0,0,0-.27.48Z" transform="translate(-47.48 -20.12)"/><path class="cls-8" d="M253.71,56.18a10.24,10.24,0,0,0,1.5-.52l-.36.93a6.14,6.14,0,0,1-1.29.56,7.47,7.47,0,0,1-1.53.31l0,.1,1.52.58a2.48,2.48,0,0,0,.5.08,1.41,1.41,0,0,0,.22,0l-.54,1.4a1.82,1.82,0,0,0-.13-.16,1.61,1.61,0,0,0-.43-.29l-3.66-1.41a1.88,1.88,0,0,0-.45-.07.8.8,0,0,0-.27,0l.42-1.08a2.32,2.32,0,0,1,1.08-1.39,1.34,1.34,0,0,1,1.94.62c.08.23.18.6.18.61A7.74,7.74,0,0,0,253.71,56.18Zm-3.86.55,2,.76a1.19,1.19,0,0,0-.76-1.29A1,1,0,0,0,249.85,56.73Z" transform="translate(-47.48 -20.12)"/><path class="cls-8" d="M252.13,52.48c.36.47.77.39,1.43-.09a1.71,1.71,0,0,1,2.15-.1,1.81,1.81,0,0,1,.26,2,1.79,1.79,0,0,1-.61.8l-1.2-.57a2.45,2.45,0,0,0,.75-.28c.3-.18.68-.68.34-1.07s-.93,0-1.26.27a1.91,1.91,0,0,1-2.19.18,1.6,1.6,0,0,1-.45-2.11,3,3,0,0,1,.7-.87l.94.49a2.06,2.06,0,0,0-.65.39C252.12,51.78,251.9,52.17,252.13,52.48Z" transform="translate(-47.48 -20.12)"/><path class="cls-8" d="M257,51a2.09,2.09,0,0,0,.39.15,1.56,1.56,0,0,0,.31,0l-.78,1.28a2.11,2.11,0,0,0-.18-.26,1.92,1.92,0,0,0-.3-.28l-3.36-2s-.21-.09-.35-.13a2.45,2.45,0,0,0-.34,0l.77-1.28s.13.18.22.28a1.28,1.28,0,0,0,.28.26Z" transform="translate(-47.48 -20.12)"/><path class="cls-8" d="M253.69,47.56l2.25-3.12.57,1s-.25.1-.39.18a1.91,1.91,0,0,0-.43.37l-.15.21,3.17,2.3a2.57,2.57,0,0,0,.46.2l.22,0-.87,1.21s-.09-.17-.15-.26a3.24,3.24,0,0,0-.28-.32L254.91,47l-.15.22a2,2,0,0,0-.29.61,2.35,2.35,0,0,0-.07.7Z" transform="translate(-47.48 -20.12)"/><path class="cls-8" d="M260.31,43.73,261.65,45a2.29,2.29,0,0,0,.42.25l.23.06-1,1.11a.93.93,0,0,0-.08-.25,2.74,2.74,0,0,0-.27-.39l-1.34-1.23L257,44a3,3,0,0,0-.33-.06h-.3l1.12-1.22a.87.87,0,0,0,.06.15.85.85,0,0,0,.28.23l1.47.29-.57-1.27a.93.93,0,0,0-.27-.26l-.14,0,1.12-1.22a1.24,1.24,0,0,0,0,.2,1.58,1.58,0,0,0,.12.42Z" transform="translate(-47.48 -20.12)"/><path class="cls-8" d="M267.08,37.75a2.68,2.68,0,1,1-4.35,3.11,2.67,2.67,0,0,1,4.35-3.11Zm-4.09.86c-.23.7.6,2,1.68,2.27a1.83,1.83,0,0,0,2.23-.83c.35-.81-.84-1.89-1.49-2.18S263.28,37.74,263,38.61Z" transform="translate(-47.48 -20.12)"/><path class="cls-8" d="M268.83,39.83a3,3,0,0,0-.05-.34,2.31,2.31,0,0,0-.12-.36l-2-3.37a1.76,1.76,0,0,0-.25-.3,1.56,1.56,0,0,0-.28-.18l2.58-1.54.13,1.15a2.78,2.78,0,0,0-.58,0,1.64,1.64,0,0,0-.67.27l.81,1.37,1.35-.8v1.09a1.63,1.63,0,0,0-.54.05,1.48,1.48,0,0,0-.51.18l.89,1.48a2.29,2.29,0,0,0,.25.28l.28.21Z" transform="translate(-47.48 -20.12)"/><path class="cls-8" d="M273.25,33.78l1,2.41a2.54,2.54,0,0,0,.26.38c.07.08.19.19.19.19l-1.39.55a2.31,2.31,0,0,0,0-.28,1.9,1.9,0,0,0-.08-.44L271.77,33s-.23-.16-.38-.24l-.41-.19,1.4-.56a2.16,2.16,0,0,0,.22.25,2.24,2.24,0,0,0,.36.26l2.82,1.79-1-2.51a1.62,1.62,0,0,0-.26-.4,1.15,1.15,0,0,0-.19-.16l1.38-.55a1.23,1.23,0,0,0,0,.22,1.74,1.74,0,0,0,.09.49L277.22,35a2.22,2.22,0,0,0,.28.44l.15.13-1.06.42a1.1,1.1,0,0,0-.17-.18,3.49,3.49,0,0,0-.35-.26Z" transform="translate(-47.48 -20.12)"/><path class="cls-8" d="M279.06,34.51l.25-.07a3.66,3.66,0,0,0,.8-.3,3.84,3.84,0,0,0,.76-.5l-.21,1.15L278,35.5a2.46,2.46,0,0,0,.06-.3,2.08,2.08,0,0,0,0-.42L277,31a2.81,2.81,0,0,0-.18-.36c-.07-.1-.2-.25-.2-.25l2.81-.74-.21,1.14a1.72,1.72,0,0,0-.5-.11,1.62,1.62,0,0,0-.69,0l.41,1.54,1.42-.38-.29,1.05a2.07,2.07,0,0,0-.43-.1,2.53,2.53,0,0,0-.55,0Z" transform="translate(-47.48 -20.12)"/><path class="cls-8" d="M284.19,31.71l-.54,2.52-.85.1-1.86-4.6a1.65,1.65,0,0,0-.25-.3,1.84,1.84,0,0,0-.19-.15l1.64-.2a.88.88,0,0,0,0,.15,1.23,1.23,0,0,0,0,.35l1,2.65.69-3.42L285.34,32l.3-2.81a1.69,1.69,0,0,0-.05-.33.64.64,0,0,0-.07-.16l1.64-.21a1.82,1.82,0,0,0-.12.15,2.84,2.84,0,0,0-.19.4l-.72,4.92-.82.1Z" transform="translate(-47.48 -20.12)"/><path class="cls-8" d="M292.25,31.44l-.12,1.82a2.22,2.22,0,0,0,.07.49,2.28,2.28,0,0,0,.1.21l-1.51-.09a.92.92,0,0,0,.14-.22,3.55,3.55,0,0,0,.14-.45l.11-1.83L289.93,29s-.1-.19-.17-.3-.18-.23-.18-.23l1.65.1a.84.84,0,0,0-.08.15.77.77,0,0,0,0,.35l.69,1.33.64-1.24a1,1,0,0,0,0-.38.44.44,0,0,0-.05-.13l1.66.11a.91.91,0,0,0-.16.11,2.28,2.28,0,0,0-.25.37Z" transform="translate(-47.48 -20.12)"/><path class="cls-8" d="M299.09,32.35a2.67,2.67,0,1,1-5.22-1.14,2.62,2.62,0,0,1,3.09-2A2.58,2.58,0,0,1,299.09,32.35Zm-3.37-2.45a2.28,2.28,0,0,0-.56,2.77,1.86,1.86,0,0,0,2.11,1.1c.84-.29.84-1.9.61-2.57S296.55,29.53,295.72,29.9Z" transform="translate(-47.48 -20.12)"/><path class="cls-8" d="M302.19,34.9a10.31,10.31,0,0,0,.6,1.47l-1-.32a6.66,6.66,0,0,1-.63-1.25,7.72,7.72,0,0,1-.38-1.52l-.1,0-.51,1.55a2.58,2.58,0,0,0-.05.5.94.94,0,0,0,0,.21l-1.42-.46a1.33,1.33,0,0,0,.15-.14,1.64,1.64,0,0,0,.26-.45l1.23-3.72a2.09,2.09,0,0,0,.06-.46,1.4,1.4,0,0,0,0-.26l1.09.36a2.32,2.32,0,0,1,1.45,1,1.34,1.34,0,0,1-.52,2,4.92,4.92,0,0,1-.61.21A8.62,8.62,0,0,0,302.19,34.9Zm-.74-3.83-.66,2a1.18,1.18,0,0,0,1.25-.82A1,1,0,0,0,301.45,31.07Z" transform="translate(-47.48 -20.12)"/><path class="cls-8" d="M306.92,37.73a2.56,2.56,0,0,0,.11.39c0,.1.1.28.1.28l-1.54-.74a1,1,0,0,0,.09-.2.81.81,0,0,0,0-.3l-.35-2.61-.13-.06-.88,1.84a2.42,2.42,0,0,0-.1.39,3.15,3.15,0,0,0,0,.32l-1.35-.64a1.48,1.48,0,0,0,.26-.2,2.61,2.61,0,0,0,.23-.33l1.67-3.54a2.11,2.11,0,0,0,.1-.35,1.34,1.34,0,0,0,0-.36l1.35.64a2,2,0,0,0-.23.16,1.91,1.91,0,0,0-.25.37l-.7,1.48.13.06,1.88-1.12a1.39,1.39,0,0,0,.27-.24l.1-.14,1.54.73a1.46,1.46,0,0,0-.22,0,2.93,2.93,0,0,0-.57.18l-2.15,1.08Z" transform="translate(-47.48 -20.12)"/><path class="cls-8" d="M311.06,37.74a1.85,1.85,0,0,0,.35,2.62,2.29,2.29,0,0,0,1.69.16l-.9.95a4.28,4.28,0,0,1-1.47-.58,2.63,2.63,0,0,1-.64-3.78,2.86,2.86,0,0,1,4.07-.57,4.8,4.8,0,0,1,.88.85l-.72,1.13a2,2,0,0,0-.79-1.39A1.81,1.81,0,0,0,311.06,37.74Z" transform="translate(-47.48 -20.12)"/><path class="cls-8" d="M318.11,43.59a2.67,2.67,0,1,1-3.8-3.75,2.67,2.67,0,0,1,3.8,3.75Zm-1.54-3.88c-.73-.1-1.85.94-1.94,2a1.83,1.83,0,0,0,1.19,2.05c.86.2,1.72-1.15,1.88-1.84S317.47,39.85,316.57,39.71Z" transform="translate(-47.48 -20.12)"/><path class="cls-8" d="M319.75,47.17l.48-2.22-2.13,1.66a1.82,1.82,0,0,0-.34.42l-.07.16L316.77,46,317,46a2.16,2.16,0,0,0,.41-.2l3.1-2.4a3.84,3.84,0,0,0,.13-.47c0-.16.06-.41.06-.41l.9,1.17a2.32,2.32,0,0,0-.14.21,4.49,4.49,0,0,0-.16.51l-.44,1.92,2,.06a2.77,2.77,0,0,0,.55-.07l.23-.05.9,1.16-.17,0a4.11,4.11,0,0,0-.73,0l-3.09,2.4a1.94,1.94,0,0,0-.33.37l-.09.22-.91-1.18.28-.06a2.07,2.07,0,0,0,.39-.2L322,47.26Z" transform="translate(-47.48 -20.12)"/><path class="cls-8" d="M323.54,53.06l.87-2.1L322,52.21a2.18,2.18,0,0,0-.41.36.77.77,0,0,0-.1.14l-.69-1.32a1.28,1.28,0,0,0,.26,0,2.52,2.52,0,0,0,.44-.12L325,49.44a3.11,3.11,0,0,0,.21-.44c.06-.14.13-.39.13-.39l.68,1.31-.17.18a4.59,4.59,0,0,0-.26.48l-.77,1.81,1.93.41a3.89,3.89,0,0,0,.56,0l.23,0,.68,1.31-.16-.07a3.89,3.89,0,0,0-.72-.13l-3.47,1.82a2,2,0,0,0-.39.3c-.05.07-.12.2-.12.2l-.69-1.32H323a2.13,2.13,0,0,0,.42-.12l2.4-1.25Z" transform="translate(-47.48 -20.12)"/><path class="cls-8" d="M324.69,59.56a1.68,1.68,0,0,1-.51-.86,1.72,1.72,0,0,1,1.19-2.06l2.7-.91a1.6,1.6,0,0,0,.28-.16,2.27,2.27,0,0,0,.31-.26l.48,1.41a1.76,1.76,0,0,0-.3,0c-.16,0-.42.06-.42.06l-2.71.91a.92.92,0,0,0-.65.69,1.11,1.11,0,0,0,.39.93l.43.4L329,58.6a1.49,1.49,0,0,0,.32-.16,1.82,1.82,0,0,0,.27-.25l.48,1.41a1.76,1.76,0,0,0-.3,0,1.45,1.45,0,0,0-.42.06l-3.73,1.26a1.68,1.68,0,0,0-.42.22,2.19,2.19,0,0,0-.16.2l-.41-1.22.22-.06a1,1,0,0,0,.19-.08Z" transform="translate(-47.48 -20.12)"/><path class="cls-8" d="M328.7,62.54l-2.55.49a2,2,0,0,0-.43.18l-.21.15-.28-1.47.27.08a1.56,1.56,0,0,0,.45,0l3.85-.73s.19-.19.3-.33a3.43,3.43,0,0,0,.27-.36l.28,1.48a1.74,1.74,0,0,0-.61.47l-2.29,2.43,2.65-.5a2,2,0,0,0,.45-.18,1.43,1.43,0,0,0,.19-.16l.28,1.46-.21-.07a2.21,2.21,0,0,0-.51,0l-3.85.73a2.29,2.29,0,0,0-.49.2l-.15.12-.21-1.11.21-.14a3.08,3.08,0,0,0,.31-.3Z" transform="translate(-47.48 -20.12)"/><path class="cls-8" d="M326.87,68.14a2.57,2.57,0,0,0-.4.11,1.89,1.89,0,0,0-.26.16l-.14-1.48.3.1a2.13,2.13,0,0,0,.41,0l3.9-.35a2.25,2.25,0,0,0,.36-.11,1.94,1.94,0,0,0,.31-.16l.13,1.49a2.21,2.21,0,0,0-.34-.1,1.52,1.52,0,0,0-.38,0Z" transform="translate(-47.48 -20.12)"/><path class="cls-8" d="M331.55,68.84l.06,3.85-1-.44a3.55,3.55,0,0,0,.2-.38,1.75,1.75,0,0,0,.12-.55v-.26l-3.92.06a2.08,2.08,0,0,0-.48.12.92.92,0,0,0-.2.11l0-1.49.28.12a2.88,2.88,0,0,0,.41.08l3.92-.06v-.27a2.43,2.43,0,0,0-.14-.66,2,2,0,0,0-.37-.6Z" transform="translate(-47.48 -20.12)"/><path class="cls-8" d="M328.5,75.94l-1.82-.2a1.74,1.74,0,0,0-.48.05,1.71,1.71,0,0,0-.23.08l.17-1.5a1.49,1.49,0,0,0,.21.15,3.22,3.22,0,0,0,.45.16l1.81.2L331,73.74s.19-.09.3-.16a1.57,1.57,0,0,0,.24-.17l-.18,1.65a.55.55,0,0,0-.14-.09.89.89,0,0,0-.35,0l-1.37.63,1.22.7a1,1,0,0,0,.37,0,.42.42,0,0,0,.14,0l-.18,1.65a1.46,1.46,0,0,0-.12-.15,1.4,1.4,0,0,0-.34-.27Z" transform="translate(-47.48 -20.12)"/><path class="cls-8" d="M327.76,80.72a1.85,1.85,0,0,0-2.35,1.2,2.35,2.35,0,0,0,.4,1.65L324.62,83a4.63,4.63,0,0,1,.06-1.58A2.63,2.63,0,0,1,328,79.6a2.85,2.85,0,0,1,1.88,3.65,4.53,4.53,0,0,1-.51,1.11l-1.3-.3a2,2,0,0,0,1-1.21A1.79,1.79,0,0,0,327.76,80.72Z" transform="translate(-47.48 -20.12)"/><path class="cls-8" d="M324.51,89.45a2.68,2.68,0,1,1,2.31-4.83A2.63,2.63,0,0,1,328,88.08,2.6,2.6,0,0,1,324.51,89.45Zm3.16-2.73c-.13-.72-1.48-1.44-2.56-1.17a1.86,1.86,0,0,0-1.56,1.8c.09.88,1.66,1.25,2.37,1.18S327.85,87.62,327.67,86.72Z" transform="translate(-47.48 -20.12)"/><path class="cls-8" d="M320.56,90.86l1.32-2.24.11.19a2,2,0,0,0,.38.34l3.37,2a1.56,1.56,0,0,0,.49.16.76.76,0,0,0,.2,0l-.76,1.29a1.1,1.1,0,0,0-.1-.22,2,2,0,0,0-.38-.32l-3.37-2-.07.12a2.82,2.82,0,0,0-.26.84,2.93,2.93,0,0,0-.08.84s-.25-.36-.43-.57S320.56,90.86,320.56,90.86Z" transform="translate(-47.48 -20.12)"/><path class="cls-8" d="M318.63,93.61l1.53-2.11s0,.13.09.21a2.25,2.25,0,0,0,.34.37l3.17,2.3a1.85,1.85,0,0,0,.48.2l.2,0-.87,1.21a.89.89,0,0,0-.09-.22,1.71,1.71,0,0,0-.34-.36L320,93l-.08.11a3.57,3.57,0,0,0-.34.81,3,3,0,0,0-.15.84s-.22-.39-.38-.61A5.93,5.93,0,0,0,318.63,93.61Z" transform="translate(-47.48 -20.12)"/><path class="cls-8" d="M317.85,95.64l-.17.2a4.34,4.34,0,0,0-.5.69,3.37,3.37,0,0,0-.34.84l-.48-1.07,1.82-2.08a1.77,1.77,0,0,0,.12.29,2.28,2.28,0,0,0,.26.33l2.95,2.58a1.93,1.93,0,0,0,.35.2,3,3,0,0,0,.31.1l-1.92,2.19-.47-1.07a1.66,1.66,0,0,0,.48-.19,1.58,1.58,0,0,0,.54-.42l-1.2-1-1,1.1-.35-1a2.05,2.05,0,0,0,.41-.16,1.91,1.91,0,0,0,.46-.3Z" transform="translate(-47.48 -20.12)"/><path class="cls-8" d="M312.58,100.28a4.17,4.17,0,0,1,1.26-1.59,2.62,2.62,0,0,1,3.73.18,2.71,2.71,0,0,1-.34,4,6.27,6.27,0,0,1-1,.75l-.84-.92a2,2,0,0,0,1.45-.5,1.68,1.68,0,0,0,0-2.46,1.77,1.77,0,0,0-2.63-.32,2.1,2.1,0,0,0-.39.41l.8.89a2.14,2.14,0,0,0,.29.23,1.57,1.57,0,0,0,.33.13l-1.1,1s-.06-.23-.11-.36a2,2,0,0,0-.2-.29l-.65-.72a2,2,0,0,0-.58-.43Z" transform="translate(-47.48 -20.12)"/><path class="cls-8" d="M311.66,101.41l-.21.16a3.43,3.43,0,0,0-.64.56,3.47,3.47,0,0,0-.52.75l-.23-1.15,2.23-1.63a2.86,2.86,0,0,0,0,.31,2.21,2.21,0,0,0,.19.37l2.31,3.18a1.83,1.83,0,0,0,.3.27c.1.07.27.16.27.16l-2.35,1.72-.22-1.15a1.69,1.69,0,0,0,.5-.08,1.65,1.65,0,0,0,.63-.29L313,103.3l-1.19.86-.11-1.09a1.65,1.65,0,0,0,.44,0,2.45,2.45,0,0,0,.51-.2Z" transform="translate(-47.48 -20.12)"/><path class="cls-18" d="M337.94,71a48.82,48.82,0,1,1-48.81-48.82A48.81,48.81,0,0,1,337.94,71Z" transform="translate(-47.48 -20.12)"/><path class="cls-18" d="M335.62,71a46.49,46.49,0,1,1-46.49-46.49A46.5,46.5,0,0,1,335.62,71Z" transform="translate(-47.48 -20.12)"/><path class="cls-18" d="M321.67,71a32.55,32.55,0,1,1-32.54-32.54A32.54,32.54,0,0,1,321.67,71Z" transform="translate(-47.48 -20.12)"/><path class="cls-8" d="M280.41,106.18l-1.39,5a1.49,1.49,0,0,0,0,.51,2.54,2.54,0,0,0,.06.45l-1.74-.48a.91.91,0,0,0,.22-.22,1,1,0,0,0,.1-.21l1.05-3.8-.75-.21Z" transform="translate(-47.48 -20.12)"/><path class="cls-8" d="M282.5,112.87a5.22,5.22,0,0,0,.48-.46,4.92,4.92,0,0,0,.33-.38l.94-1.39c-.05,0,.29-.13-.3-.32a1.71,1.71,0,0,1,1-3.25,1.79,1.79,0,0,1,1.71,2,6,6,0,0,1-1.15,2l-.72,1a2.14,2.14,0,0,0-.25.41,1.51,1.51,0,0,0-.09.48Zm2.17-3.23c.61.07,1.1-1.47.15-1.56S283.8,109.53,284.67,109.64Z" transform="translate(-47.48 -20.12)"/><path class="cls-8" d="M292.69,107.2l.17,2.74s0,.19.26.14a1.49,1.49,0,0,0,.56-.21l.1-.06.07,1.28-.13-.06a1.43,1.43,0,0,0-.57-.19c-.15,0-.15.06-.22.11l.08,1.32a2,2,0,0,0,.13.41,2.3,2.3,0,0,0,.26.49l-2.12.12a1.47,1.47,0,0,0,.25-.52,1.51,1.51,0,0,0,.05-.42l-.09-1.39-2.07.12a4.79,4.79,0,0,0-.07-.51,2.7,2.7,0,0,0-.08-.39c.29-.31.06.12,1.08-1.3a11.54,11.54,0,0,0,1.06-1.6Zm-1.19,3-.07-1.21-.85,1.27Z" transform="translate(-47.48 -20.12)"/><path class="cls-8" d="M299.43,105.92a4.36,4.36,0,0,0-.33.6,2.81,2.81,0,0,0-.22.48l-.48,1.49c.07,0-.11.17.5.05a1.49,1.49,0,0,1,1.74,1.2,1.91,1.91,0,0,1-1.56,2.47,1.8,1.8,0,0,1-2.31-1.33,4.3,4.3,0,0,1,.28-2.31l.39-1.23a1.39,1.39,0,0,0,.07-.46,2.74,2.74,0,0,0,0-.49Zm-1,3.58c-1.06.38-.42,2,.5,1.76C300,111,299.28,109.2,298.46,109.5Z" transform="translate(-47.48 -20.12)"/><path class="cls-18" d="M319.39,71a30.27,30.27,0,1,1-30.26-30.27A30.26,30.26,0,0,1,319.39,71Z" transform="translate(-47.48 -20.12)"/><path class="cls-8" d="M271.43,106.53a1.37,1.37,0,1,1-1.37-1.37A1.37,1.37,0,0,1,271.43,106.53Z" transform="translate(-47.48 -20.12)"/><path class="cls-8" d="M306.82,106.53a1.37,1.37,0,1,0,1.37-1.37A1.37,1.37,0,0,0,306.82,106.53Z" transform="translate(-47.48 -20.12)"/><path class="cls-19" d="M273.82,76.71c-2.51,1.6-3.15,5.23-2.35,8,1.22,4.21,6.36,4.46,8,5.23s2.56,3.4,2.25,5.11-1.57,1.6-1.57,1.6a1.3,1.3,0,0,1-.71.85,14,14,0,0,0-3.47,1.64c-1.51,1-3.38-.29-3.38-.29s-1.37.11-2.87.14-7.91-6.81-5.69-17.4c1.32-6.29,6.38-9,9.93-10.16a14.94,14.94,0,0,0-.27,3.4c0,.65.08,1.27.16,1.87Zm3.76-6.08a8.49,8.49,0,0,1-.11,3.82l-.14-3.79a1.51,1.51,0,0,1,.25,0Z" transform="translate(-47.48 -20.12)"/><path class="cls-13" d="M269.85,97.43a3,3,0,0,1-.26-.22,9,9,0,0,1-.73-.75,14.76,14.76,0,0,1-2-3,17.41,17.41,0,0,1-1.33-11.76c1.1-5.29,5.11-7.78,8.22-8.93.81.46.09,1.34.12,2,0,.18-.18.37-.17.54-3.69,1.83-4.3,6.5-3.42,9.55a7.53,7.53,0,0,0,4.64,4.82,19.88,19.88,0,0,0,2.56.83c.35.1.68.18,1,.27A3.63,3.63,0,0,1,279,91a3.73,3.73,0,0,1,1.47,3.6,1.33,1.33,0,0,1-.14.41l-.46,0h-.71l-.23,1c-.2.07-.67.22-1.23.45a12.91,12.91,0,0,0-2.4,1.3,1.2,1.2,0,0,1-1.05,0,2.62,2.62,0,0,1-.52-.22l-.21-.12-.42-.3s-1.8.16-3.25.19Z" transform="translate(-47.48 -20.12)"/><path class="cls-8" d="M274,97.92,272.94,99s-.47.05-1.78-1.52a3.72,3.72,0,0,1-.5-3.62A6.7,6.7,0,0,0,272,96.23a4.81,4.81,0,0,0,2,1.69Z" transform="translate(-47.48 -20.12)"/><path class="cls-8" d="M278.85,97.63a6.31,6.31,0,0,0-.22-3.26c-.62-1.22-2.23-.46-2.31.65a1.37,1.37,0,0,1,.08-2.15,2.2,2.2,0,0,1,3.14.53,4.52,4.52,0,0,1,.47,2.88l-.43.25-.73,1.1Z" transform="translate(-47.48 -20.12)"/><path class="cls-20" d="M304.91,58.16c4.35-1.51,5.76,7.29,3.79,11s-8,3.61-8,3.61l-6.43-5.38V58.54Z" transform="translate(-47.48 -20.12)"/><path class="cls-16" d="M304.91,58.16c4.35-1.51,5.76,7.29,3.79,11s-8,3.61-8,3.61l-6.43-5.38V58.54Z" transform="translate(-47.48 -20.12)"/><path class="cls-8" d="M288.35,58.82,287.19,61,283.78,64l-1.69-4.91a7,7,0,0,1,1.26-1.55,4.65,4.65,0,0,1,1.88-1l3.12,2.24Z" transform="translate(-47.48 -20.12)"/><path class="cls-8" d="M288.37,59.51l-1.16,2.15-3.4,3.07-1.7-4.91a6.84,6.84,0,0,1,1.27-1.55,4.65,4.65,0,0,1,1.87-1l3.12,2.24Z" transform="translate(-47.48 -20.12)"/><path class="cls-8" d="M267.1,47.24a28.38,28.38,0,0,1,9.57,3.81,29.16,29.16,0,0,1,8.2,7.13l-1.76,1.36a24,24,0,0,0-8.89-6.32,28.06,28.06,0,0,0-8.49-2,5.4,5.4,0,0,1,.28-2.45,3.08,3.08,0,0,1,1.09-1.53Z" transform="translate(-47.48 -20.12)"/><path class="cls-8" d="M267.1,46.55a28.38,28.38,0,0,1,9.57,3.81,29.23,29.23,0,0,1,8.2,7.12l-1.76,1.37a24.05,24.05,0,0,0-8.89-6.33,27.82,27.82,0,0,0-8.49-2,5.4,5.4,0,0,1,.28-2.45,3.08,3.08,0,0,1,1.09-1.53Z" transform="translate(-47.48 -20.12)"/><path class="cls-21" d="M266.78,48.34a2.74,2.74,0,0,1,.51-.89l.08-.07.15,0,.51.13c.41.11,1,.26,1.62.47a31.69,31.69,0,0,1,6.6,3,32.44,32.44,0,0,1,6,4.69c.65.66,1.14,1.21,1.47,1.6l-.53.41a25.31,25.31,0,0,0-2-1.91,23.6,23.6,0,0,0-6.69-4.07,31,31,0,0,0-8-2,5.06,5.06,0,0,1,.27-1.44Z" transform="translate(-47.48 -20.12)"/><g class="cls-22"><path class="cls-8" d="M270,53.26s-.13-.71-.16-1a6.81,6.81,0,0,1,0-1.19,8,8,0,0,1,.22-1.19c0-.16.09-.34.15-.52a3.94,3.94,0,0,1,.8-1.39c.14-.15.26-.26.35-.34a4.43,4.43,0,0,1,.38-.25l.22,0s-.09.6-.09.6a3.09,3.09,0,0,0-1.08,1.54c-.06.17-.11.33-.15.49a7,7,0,0,0-.19,1.09,6.07,6.07,0,0,0,.05,1.56l-.51.6Z" transform="translate(-47.48 -20.12)"/><path class="cls-8" d="M274.52,55.58s-.13-.71-.16-1a6.81,6.81,0,0,1,0-1.19,8.05,8.05,0,0,1,.21-1.19c.05-.16.1-.34.16-.52a3.89,3.89,0,0,1,.8-1.38,2.85,2.85,0,0,1,.35-.35l.38-.25.22,0s-.09.61-.09.61a3,3,0,0,0-1.08,1.54,4.42,4.42,0,0,0-.15.48,8.26,8.26,0,0,0-.2,1.09A6.34,6.34,0,0,0,275,55l-.51.6Z" transform="translate(-47.48 -20.12)"/><path class="cls-8" d="M278.46,58.86s-.12-.71-.15-1a6.73,6.73,0,0,1,0-1.19,7.72,7.72,0,0,1,.22-1.19c0-.17.09-.34.15-.52a3.94,3.94,0,0,1,.8-1.39,3.45,3.45,0,0,1,.36-.34,3.4,3.4,0,0,1,.37-.25l.22,0s-.09.6-.09.6a3.09,3.09,0,0,0-1.08,1.54c-.06.17-.1.33-.14.49a5.92,5.92,0,0,0-.2,1.09,6.68,6.68,0,0,0,.05,1.56l-.51.6Z" transform="translate(-47.48 -20.12)"/></g><path class="cls-23" d="M284.51,62l-1.1-2.79,0-.07a5.8,5.8,0,0,1,.83-.93,3.54,3.54,0,0,1,1-.62l.13-.06,2.14,1.54-.7,1.29L284.51,62Z" transform="translate(-47.48 -20.12)"/><g class="cls-24"><path class="cls-16" d="M282.48,63l-1.1-2.78,0-.07c.19-.26,1.63-3.3,1.63-3.3l2.48,4.24-3,1.91Z" transform="translate(-47.48 -20.12)"/></g><path class="cls-8" d="M306.53,62.58l.45,4.07a2.77,2.77,0,0,1,2.08-1.15c2.6-.09,3.88,3.34,4,5.84a8.89,8.89,0,0,1-1.63,5.4c-.21.29-1,1.11-1,1.11l-4.87-7,.18-.83-1.06-.75,1.88-6.69Z" transform="translate(-47.48 -20.12)"/><path class="cls-8" d="M307,70.37s.68-3,2.55-3.1,3.1,2.26,3.18,4.78A7.8,7.8,0,0,1,311,77.34l-4.16-6,.22-1Z" transform="translate(-47.48 -20.12)"/><path class="cls-25" d="M307.59,71.2l.15-.67a6,6,0,0,1,.5-1.34c.33-.62.78-1.16,1.35-1.18,1.14,0,2.32,1.54,2.41,4.06a7.25,7.25,0,0,1-.77,3.51c-.09.17-.18.33-.27.47l-3.37-4.85Z" transform="translate(-47.48 -20.12)"/><g class="cls-26"><path class="cls-7" d="M306.91,70.19l.15-.67a6.43,6.43,0,0,1,.5-1.35c.33-.62.78-1.15,1.35-1.17,1.15,0,2.32,1.53,2.41,4.06a7.2,7.2,0,0,1-.77,3.5c-.09.18-.18.34-.26.48l-3.38-4.85Z" transform="translate(-47.48 -20.12)"/></g><g class="cls-26"><path class="cls-8" d="M305.62,70.07A2.28,2.28,0,1,1,308,72a2.17,2.17,0,0,1-2.34-2Z" transform="translate(-47.48 -20.12)"/><path class="cls-27" d="M307.93,68.74a1.16,1.16,0,1,1-1.22,1.2,1.21,1.21,0,0,1,1.22-1.2Z" transform="translate(-47.48 -20.12)"/><path class="cls-7" d="M307.33,70a.53.53,0,0,1,.54-.53.51.51,0,1,1,0,1,.53.53,0,0,1-.58-.49Z" transform="translate(-47.48 -20.12)"/></g><path class="cls-8" d="M313.77,79.26c.44,2.15-.19,3.2-1.29,3.7a5.73,5.73,0,0,1-1.69.41c-.57.07-1.13.1-1.61.18-2.82.48-5.91,1.19-9,1.81a57.74,57.74,0,0,1-9,1.24c-6.24.22-15.2-1.85-15.55-11.83-.18-5,2.64-8.68,5.47-11.12a24.75,24.75,0,0,1,3.9-2.74,20.79,20.79,0,0,1,1.88-.95,119.14,119.14,0,0,1,14.74,5.37c5.74,2.66,11.17,9.27,12.11,13.93Z" transform="translate(-47.48 -20.12)"/><path class="cls-13" d="M312.35,81.66a4.23,4.23,0,0,1-1.24.28c-.59.07-1.18.1-1.68.19-2.83.48-5.94,1.19-9,1.81a56.11,56.11,0,0,1-8.72,1.22c-6.14.21-13.71-1.81-14-10.4-.28-7.79,7.88-12.21,9.87-13.16a115.22,115.22,0,0,1,14,5.13c5.39,2.5,10.44,8.76,11.28,12.88.34,1.68-.17,1.91-.46,2Z" transform="translate(-47.48 -20.12)"/><path class="cls-8" d="M305.72,80.4a45.88,45.88,0,0,1-13,2.47c-9,.31-11.66-2.68-11.78-6.14,0-1.11-.55-7.15.08-6.54,1.74,1.69,2.83,1.17,4.53,1.11,2.56-.09,4.4,1.75,8.37,4.8a23.15,23.15,0,0,0,11.75,4.3Z" transform="translate(-47.48 -20.12)"/><path class="cls-7" d="M285.37,72.87a1.33,1.33,0,0,1,1.45,1.5,2.49,2.49,0,0,1,2.36-.05A3.14,3.14,0,0,1,291,76.87s.72-.55,2.39.4a6.07,6.07,0,0,1,2.27,2.27,6.25,6.25,0,0,1,2.43,0c.84.3,1.12,1.85-.8,1.93-1.51.07-1.9-.76-1.9-.76a4.24,4.24,0,0,1-3.17,1.06c-2,0-2.14-1-2.14-1a2.71,2.71,0,0,1-2.76.59c-2.09-.48-2.29-1.75-2.29-1.75a2.21,2.21,0,0,1-2.32-1c-.62-1,0-2.41.67-2a21.65,21.65,0,0,0,6.53,2.61,19.92,19.92,0,0,0,3.59.48,11.46,11.46,0,0,1-2.83-.75.94.94,0,0,1-.53-.76,3.71,3.71,0,0,1-2.26-.25,3.12,3.12,0,0,1-1.79-1.26,2.91,2.91,0,0,1-1.76-.17c-2.4-1.15-.36-3.66,1-3.65Z" transform="translate(-47.48 -20.12)"/><path class="cls-8" d="M303.15,63.85,301.25,65l-3.74,1.74L297.35,62a6,6,0,0,1,1.49-1,4.16,4.16,0,0,1,1.88-.37l2.43,3.18Z" transform="translate(-47.48 -20.12)"/><path class="cls-8" d="M297.35,62l.15.26,0,.5s-.26.19-.28-.15a1.11,1.11,0,0,1,.17-.61Z" transform="translate(-47.48 -20.12)"/><path class="cls-8" d="M302.66,64l-1.57,1.55-3.74,1.74-.17-4.67a6.23,6.23,0,0,1,1.5-1,4.16,4.16,0,0,1,1.88-.37l2.1,2.75Z" transform="translate(-47.48 -20.12)"/><path class="cls-8" d="M287.58,47.86a25.51,25.51,0,0,1,7.23,5.8A26.35,26.35,0,0,1,300,62l-1.89.71a21.59,21.59,0,0,0-6-7.78,25.21,25.21,0,0,0-6.78-4,4.78,4.78,0,0,1,.89-2,2.74,2.74,0,0,1,1.34-1Z" transform="translate(-47.48 -20.12)"/><path class="cls-8" d="M287.76,47.26a25.51,25.51,0,0,1,7.23,5.8,26.35,26.35,0,0,1,5.19,8.29l-1.88.71a21.54,21.54,0,0,0-6-7.78,25.21,25.21,0,0,0-6.78-4,4.83,4.83,0,0,1,.89-2,2.74,2.74,0,0,1,1.34-1Z" transform="translate(-47.48 -20.12)"/><path class="cls-21" d="M287,48.72a2.36,2.36,0,0,1,.67-.63l.09,0,.12.08.4.25c.32.19.76.47,1.27.82a28.92,28.92,0,0,1,8.83,10,19.11,19.11,0,0,1,.84,1.76l-.56.21A22.56,22.56,0,0,0,297.44,59a20.94,20.94,0,0,0-4.68-5.26,28,28,0,0,0-6.36-3.82,4.9,4.9,0,0,1,.61-1.17Z" transform="translate(-47.48 -20.12)"/><g class="cls-28"><path class="cls-8" d="M288.47,53.82s.08-.65.14-.93a5.39,5.39,0,0,1,.32-1,8.49,8.49,0,0,1,.49-1c.08-.13.17-.27.27-.41a3.58,3.58,0,0,1,1.06-1,3.68,3.68,0,0,1,.39-.2c.12-.05.39-.12.39-.12l.18.08s-.23.5-.23.5a2.74,2.74,0,0,0-1.34,1c-.09.13-.18.26-.25.38a7.26,7.26,0,0,0-.46.89,5.47,5.47,0,0,0-.36,1.36l-.6.38Z" transform="translate(-47.48 -20.12)"/><path class="cls-8" d="M291.75,57s.08-.64.14-.93a6,6,0,0,1,.31-1,7,7,0,0,1,.5-1,4.81,4.81,0,0,1,.27-.41,3.52,3.52,0,0,1,1.06-1,2.69,2.69,0,0,1,.39-.19c.12,0,.39-.12.39-.12l.18.08s-.24.5-.24.5a2.74,2.74,0,0,0-1.33,1,3.11,3.11,0,0,0-.25.38,6.6,6.6,0,0,0-.46.89,5.45,5.45,0,0,0-.36,1.35l-.6.38Z" transform="translate(-47.48 -20.12)"/><path class="cls-8" d="M294.28,60.86s.08-.64.14-.93a5.31,5.31,0,0,1,.32-1,7.07,7.07,0,0,1,.49-1c.08-.14.17-.27.27-.42a3.72,3.72,0,0,1,1.06-1c.15-.09.29-.15.39-.2l.39-.11.18.08s-.23.5-.23.5a2.68,2.68,0,0,0-1.34,1,4.25,4.25,0,0,0-.25.39,6.42,6.42,0,0,0-.46.88,5.58,5.58,0,0,0-.36,1.36l-.6.38Z" transform="translate(-47.48 -20.12)"/></g><path class="cls-23" d="M298.68,65.13l-.22-2.68.06-.05a5.87,5.87,0,0,1,1-.58,3.19,3.19,0,0,1,1-.28h.13L302.53,64l-1.14,2.43-2.71-1.31Z" transform="translate(-47.48 -20.12)"/><path class="cls-8" d="M300.44,71.83A23.6,23.6,0,0,1,290,69.44c-4.76-2.49-5.29-5.5-5.29-5.5s-.73-3.79,5.54-4,10.24,11.9,10.24,11.9Z" transform="translate(-47.48 -20.12)"/><path class="cls-8" d="M302.25,70,301,73.64c-1.25-3.9-5-13.77-10.88-13.57-3.63.13-4.9,1.8-5.44,2.8A6.64,6.64,0,0,1,291.18,58c4.79-.17,8.22,2.9,9.89,6.6L304.82,62l-2.59,7.91,0,.06Z" transform="translate(-47.48 -20.12)"/><path class="cls-25" d="M297.83,70.71A21.4,21.4,0,0,1,291,68.62a11.29,11.29,0,0,1-4.16-3.44,6.4,6.4,0,0,1-.63-1.16,1.85,1.85,0,0,1-.11-.37,1.65,1.65,0,0,1,0-.4,2.2,2.2,0,0,1,.33-1c.42-.69,1.52-1.63,4.51-1.73,4.66-.16,8.05,7.58,9.14,10.4-.56,0-1.32-.09-2.21-.21Z" transform="translate(-47.48 -20.12)"/><g class="cls-29"><path class="cls-7" d="M298.85,70.37A21.4,21.4,0,0,1,292,68.28a11,11,0,0,1-4.16-3.44,6.4,6.4,0,0,1-.63-1.16,2.67,2.67,0,0,1-.12-.37,2.13,2.13,0,0,1,0-.4,2.3,2.3,0,0,1,.32-1c.43-.68,1.53-1.62,4.51-1.73,4.67-.16,8.06,7.59,9.14,10.4-.56,0-1.32-.09-2.2-.21Z" transform="translate(-47.48 -20.12)"/></g><g class="cls-29"><path class="cls-8" d="M292.26,66.31a3,3,0,1,1,3.12,2.63,2.9,2.9,0,0,1-3.12-2.63Z" transform="translate(-47.48 -20.12)"/><path class="cls-30" d="M295.31,64.61A1.58,1.58,0,0,1,297,66.05a1.64,1.64,0,1,1-1.69-1.44Z" transform="translate(-47.48 -20.12)"/><path class="cls-7" d="M294.53,66.23a.76.76,0,1,1,.78.66.72.72,0,0,1-.78-.66Z" transform="translate(-47.48 -20.12)"/></g><polygon class="cls-20" points="253.59 27.59 233.98 32.39 234.27 33.42 253.94 43.05 274.78 37.59 274.89 36.78 253.59 27.59"/><polyline class="cls-23" points="233.98 32.39 254.02 42.13 274.89 36.78 253.59 27.59 233.98 32.39"/><polygon class="cls-16" points="253.94 43.05 234.27 33.42 233.98 32.39 254.02 42.13 253.94 43.05"/><path class="cls-8" d="M287.48,55.9c1.07-.41,5.58-1,11.24-1.31l.72-.05-.11-2-.72.05c-12.68.7-12.91,1.9-13,2.61a16.51,16.51,0,0,0-.12,2.68,2.17,2.17,0,0,0-.25,2.9,44.32,44.32,0,0,1-1.07,7.93l-.89.66,2.11.76c.13,0,.8.2,1,.2a14.25,14.25,0,0,0,1.44-.08l1.27-.12-.7-1a57.1,57.1,0,0,1-.77-7.8h0v0q0-.31,0-.51a2.18,2.18,0,0,0-.15-2.9C287.43,57.12,287.44,56.36,287.48,55.9Z" transform="translate(-47.48 -20.12)"/><polygon class="cls-16" points="254.02 42.13 274.89 36.78 274.78 37.59 253.94 43.05 254.02 42.13"/><path class="cls-13" d="M286.27,60.73a39.77,39.77,0,0,1,0-5.38c.22-1.18,7.84-1.78,12.37-2l0,.54c-5.54.31-11.49,1-11.88,1.61a41.68,41.68,0,0,0,0,5.23Z" transform="translate(-47.48 -20.12)"/><path class="cls-13" d="M287.36,59.48a1,1,0,1,1-.94-1.22A1.11,1.11,0,0,1,287.36,59.48Z" transform="translate(-47.48 -20.12)"/><path class="cls-13" d="M285.9,60.47c.12.7-.64,8.31-1.25,8.77l.61.28.46-2.78-.11,2.8a8.43,8.43,0,0,0,2.09,0c-.22-.3-1.14-7.92-.75-9.05Z" transform="translate(-47.48 -20.12)"/><path class="cls-20" d="M300.8,54.51c3.59.44,4.69-1.65.53-1.72S298,54.16,300.8,54.51Z" transform="translate(-47.48 -20.12)"/><path class="cls-21" d="M300.8,54.51c3.59.44,4.69-1.65.53-1.72S298,54.16,300.8,54.51Z" transform="translate(-47.48 -20.12)"/><path class="cls-8" d="M281.38,71.27a1.35,1.35,0,0,1-1.91-.15c-.48-.56.65-.17,1.22-.65s.35-1.67.84-1.1A1.35,1.35,0,0,1,281.38,71.27Z" transform="translate(-47.48 -20.12)"/><path class="cls-13" d="M122.76,94a27.1,27.1,0,0,1-14.17,3.85c-11.27-.12-16.88-12.74-16.88-24.17V49.58a27.6,27.6,0,0,0-.66-4.26c-.29-.9-.9-2.3-.9-2.3H101.7s-.45.95-.65,1.56a27.32,27.32,0,0,0-.9,5V76.25c0,10.45,6.67,15.24,12,15.32,6.76.05,13.36-4.75,13.36-13.76V49.58a25.43,25.43,0,0,0-.78-4.71C124.52,44.13,124,43,124,43h11.55a14.87,14.87,0,0,0-.86,1.6,16.17,16.17,0,0,0-.69,5V90.75a40.52,40.52,0,0,0,.86,4.59c.24.74.69,2,.69,2H124a15.68,15.68,0,0,0,1-2,21.62,21.62,0,0,0,.58-2.79Z" transform="translate(-47.48 -20.12)"/><path class="cls-13" d="M182,97.31,155.42,61.54V90.75a27.61,27.61,0,0,0,.86,4.71c.2.7.69,1.85.69,1.85H145.42s.61-1.23.9-2a20.37,20.37,0,0,0,.66-4.59V49.62s-1.77-2.17-3-3.36a46,46,0,0,0-4.22-3.2L152,43,181.14,82.4V49.58a26,26,0,0,0-.61-3.89,20.5,20.5,0,0,0-.94-2.67h11.55a18.29,18.29,0,0,0-.9,2,22.31,22.31,0,0,0-.66,4.51V90.75a33.6,33.6,0,0,0,.66,4.1c.29.94.9,2.46.9,2.46Z" transform="translate(-47.48 -20.12)"/><path class="cls-13" d="M220.71,71.33V90.75a24.45,24.45,0,0,0,.65,4.35,22.67,22.67,0,0,0,.9,2.21H210.71s.66-1.39,1-2.21a21.16,21.16,0,0,0,.58-4.35V73L199.48,49.58a46.94,46.94,0,0,0-3-4.35A25,25,0,0,0,194.24,43H207a8.6,8.6,0,0,0-.65,2c-.33,1.88,1.47,4.59,1.47,4.59L216.2,64.2l8-14.62a19.81,19.81,0,0,0,.9-3.28,12.88,12.88,0,0,0-.33-3.28h13.11s-1.39,1.07-2.05,1.72a26.32,26.32,0,0,0-3.19,4.84Z" transform="translate(-47.48 -20.12)"/><path class="cls-13" d="M402.87,74.12V90.75a25,25,0,0,0,.74,4.51,20.56,20.56,0,0,0,.82,2H392.88s.57-1.15.82-1.85a20.61,20.61,0,0,0,.73-4.71V49.58a21.14,21.14,0,0,0-.86-5,13.79,13.79,0,0,0-.69-1.48l12.53,0c8.69,0,19.22,6.11,19.42,14.71.13,5-.94,9.18-7.86,13.77l-2.71,1.8.9,2c.62,1.39,3,4.14,5.9,7.7,3.57,4.3,5.62,6.92,10,10.41l4.83,3.85h-7.12L426,95.75c-4.18-2.33-7.37-5.57-11.55-9.58A80.94,80.94,0,0,1,404.1,73.38Zm1.81-2.87c6.59-1.51,13-6.51,11.88-12.78-1.4-8-8.32-9.59-12.21-10.74l-1.48-.45V71.66Z" transform="translate(-47.48 -20.12)"/><path class="cls-13" d="M454.94,97.55c-15.48-.94-24.62-12.53-25-27.45S441,42.78,455.64,42.49s26.26,11,26.84,26.79C483.09,86.82,469.45,98.46,454.94,97.55Zm5.86-6.18c8.61-.82,14.75-11.88,13.85-21.84-1.31-14-12.82-21.67-21.51-21.22-10,.53-16.18,11.27-15.36,21.43C438.84,83.71,449.54,92.43,460.8,91.37Z" transform="translate(-47.48 -20.12)"/><path class="cls-13" d="M511.12,97.55c-15.49-.94-24.62-12.53-25-27.45s11.1-27.32,25.72-27.61,26.27,11,26.84,26.79C539.26,86.82,525.62,98.46,511.12,97.55ZM517,91.37c8.6-.82,14.75-11.88,13.84-21.84-1.31-14-12.82-21.67-21.5-21.22-10,.53-16.19,11.27-15.37,21.43C495,83.71,505.71,92.43,517,91.37Z" transform="translate(-47.48 -20.12)"/><path class="cls-13" d="M570.69,80.68,553.15,58.76v32a19.35,19.35,0,0,0,.74,4.88,14.56,14.56,0,0,0,.82,1.68H543.15a16.39,16.39,0,0,0,1-2,18.39,18.39,0,0,0,.57-4.59V49.62A33.74,33.74,0,0,0,541.47,45c-.77-.82-2.17-2-2.17-2H551l19.67,25.77L590.43,43H601.9s-1.14,1.07-1.8,1.8a40.88,40.88,0,0,0-3.36,4.76V90.75a28.64,28.64,0,0,0,.74,4.35,23,23,0,0,0,.82,2.21H586.74a16.59,16.59,0,0,0,1-2.29,21.66,21.66,0,0,0,.61-4.27V58.67Z" transform="translate(-47.48 -20.12)"/><path class="cls-13" d="M631.36,51.51c-2.21-.82-3.73-1.19-6-1.81a28.68,28.68,0,0,0-7-1.06l-2.3-.17V67.24c3-.29,4.67-.25,7.62-.41a59.32,59.32,0,0,1,9.75.33l-4.67,7.62A33.27,33.27,0,0,0,616,72.07V91.9h2.46a44.45,44.45,0,0,0,7.7-.9,53.48,53.48,0,0,0,12.37-3.36l-4.18,9.67H606a14.9,14.9,0,0,0,.78-1.56,19.09,19.09,0,0,0,.78-5V49.58a14,14,0,0,0-.53-4.76,11.93,11.93,0,0,0-1-1.8h29.5Z" transform="translate(-47.48 -20.12)"/><path class="cls-13" d="M81.86,54S75.93,49,68.7,49.12c-6.45.12-11.89,3.4-11.89,7.53-.06,5,5.76,7,11.89,9.67C79.38,71,86,75.86,85.18,84.1c-1,8.52-8.3,13.48-22,13.2-6.27-.13-11.77-.62-15.73-3.81V82.6l4.09,4.7a20.19,20.19,0,0,0,11.89,3.93c7.1.13,13-3.69,12.15-7.94-1.22-5.66-7.93-7-15-10.08-8.82-3.94-12-6.27-12.79-14.18C47,50.75,55.21,42.19,69.34,42.31c6.27,0,11.38.66,12.52,2.38Z" transform="translate(-47.48 -20.12)"/><path class="cls-13" d="M379.38,66.75,377,68.55,380,70.43c5.41,3.28,9,8,9.43,13.26.77,9.38-13,13.62-25.67,13.62H346.45a16,16,0,0,0,1.16-1.85c.83-1.8,2.5-4.87,2.5-4.87V49.46a27.74,27.74,0,0,1-2.44-4.1A17.46,17.46,0,0,0,346.45,43h18c10.72,0,22,6,21.77,14.3C386.12,61.46,383.08,64,379.38,66.75Zm-14.2.49c5.25-.9,12.69-5.46,12.43-9.67-.5-8.13-10.55-9.06-16.13-9.34l-1.55-.09v20Zm.05,25.07c3.48-.12,15.13-2.12,14.38-9.83-.57-5.8-8-10.57-15.92-12.29l-3.76-.82v23.1Z" transform="translate(-47.48 -20.12)"/></svg>